PathFileType	4	(X/Y/Z)	C:/Users/opensim2020/Desktop/walking_exp_matlab/subject01/subject01_trc/subject01_walking17_run_cyclic.trc																																																																																																																																																																																					
DataRate	CameraRate	NumFrames	NumMarkers	Units	OrigDataRate	OrigDataStartFrame	OrigNumFrames																																																																																																																																																																																	
100	100	4	61	mm	100	317	58																																																																																																																																																																																	
Frame#	Time	LTHI			LKNE			RELB			STRN			RWRA			LSHO			RFRM			RUPA			RSHO			RASI			RBHD			RFIN			LFHD			RFHD			CLAV			LHEE			RWRB			LASI			LBHD			LWRA			LTIB			RTHI			LWRB			LTOE			RKNE			C7			LFRM			LFIN			LUPA			LELB			RTIB			RTOE			RBAK			RANK			T10			LPSI			LANK			RHEE			RPSI			*39			*40			*41			*42			*43			*44			*45			*46			*47			*48			*49			*50			*51			*52			*53			*54			*55			*56			*57			*58			*59			*60		
		X1	Y1	Z1	X2	Y2	Z2	X3	Y3	Z3	X4	Y4	Z4	X5	Y5	Z5	X6	Y6	Z6	X7	Y7	Z7	X8	Y8	Z8	X9	Y9	Z9	X10	Y10	Z10	X11	Y11	Z11	X12	Y12	Z12	X13	Y13	Z13	X14	Y14	Z14	X15	Y15	Z15	X16	Y16	Z16	X17	Y17	Z17	X18	Y18	Z18	X19	Y19	Z19	X20	Y20	Z20	X21	Y21	Z21	X22	Y22	Z22	X23	Y23	Z23	X24	Y24	Z24	X25	Y25	Z25	X26	Y26	Z26	X27	Y27	Z27	X28	Y28	Z28	X29	Y29	Z29	X30	Y30	Z30	X31	Y31	Z31	X32	Y32	Z32	X33	Y33	Z33	X34	Y34	Z34	X35	Y35	Z35	X36	Y36	Z36	X37	Y37	Z37	X38	Y38	Z38	X39	Y39	Z39	X40	Y40	Z40	X41	Y41	Z41	X42	Y42	Z42	X43	Y43	Z43	X44	Y44	Z44	X45	Y45	Z45	X46	Y46	Z46	X47	Y47	Z47	X48	Y48	Z48	X49	Y49	Z49	X50	Y50	Z50	X51	Y51	Z51	X52	Y52	Z52	X53	Y53	Z53	X54	Y54	Z54	X55	Y55	Z55	X56	Y56	Z56	X57	Y57	Z57	X58	Y58	Z58	X59	Y59	Z59	X60	Y60	Z60	X61	Y61	Z61
																																																																																																																																																																																								
34	0.33	-47.81533	587.04633	-551.33582	-112.81985	465.10321	-529.8244	-164.33035	1247.83972	-110.80775	192.63307	1179.77917	-378.76208	-68.15659	1008.52478	-103.57195	161.08121	1357.18481	-555.75702	-150.19713	1121.76782	-74.76787	-77.7962	1327.48962	-170.41936	89.16933	1380.00574	-265.34845	91.68454	932.11707	-312.29453	44.72987	1593.44153	-352.73544	-48.21335	941.82385	-55.8797	136.11339	1647.47839	-483.4541	147.1812	1663.43738	-372.40405	172.92702	1339.25061	-392.08496	-486.08801	272.40897	-450.82443	-109.65721	1001.96777	-63.30565	88.25142	912.34155	-513.72534	34.54121	1580.427	-470.90872	302.60397	1172.87573	-473.65765	-273.64166	363.12213	-539.13892	227.39668	690.27832	-261.58093	342.53265	1129.35681	-474.47556	-461.89175	81.20449	-447.21951	337.90781	575.94879	-287.09543	35.94262	1410.25549	-436.50275	284.84503	1083.02905	-571.7074	363.67166	1196.13782	-432.13345	188.47742	1190.78503	-646.41089	210.92847	1040.54285	-661.7951	340.67953	397.50677	-266.4274	511.89023	146.03238	-329.85559	-51.53785	1246.21045	-370.20248	371.06549	187.47322	-306.26877	-45.208	1136.56433	-439.63474	-86.22454	948.1579	-467.28925	-453.4238	233.65726	-494.01889	323.53391	145.49104	-353.51282	-83.41531	951.58746	-324.10739	1973.16187	1023.76001	-3102.05054	2012.45605	1022.04083	-3140.77271	NaN	NaN	NaN	129.01228	1693.34216	-397.22919	NaN	NaN	NaN	NaN	NaN	NaN	NaN	NaN	NaN	NaN	NaN	NaN	NaN	NaN	NaN	NaN	NaN	NaN	NaN	NaN	NaN	NaN	NaN	NaN	NaN	NaN	NaN	NaN	NaN	NaN	NaN	NaN	NaN	NaN	NaN	NaN	NaN	NaN	NaN	NaN	NaN	NaN	NaN	NaN	NaN	NaN	NaN	NaN	NaN	NaN	NaN	NaN	NaN	NaN
35	0.34	7.54011	585.33331	-551.16046	-56.60979	462.72852	-530.18896	-117.51586	1242.69946	-111.4499	239.08586	1182.46252	-378.43912	-17.69314	1004.9917	-104.72181	206.53497	1359.89685	-554.08105	-101.62613	1116.65588	-75.94884	-31.73345	1324.87183	-168.83942	134.98589	1380.44153	-263.96906	139.64064	932.6167	-313.54507	90.38312	1595.57129	-350.08221	2.89971	938.1297	-57.32085	181.19737	1649.9668	-480.82248	192.86884	1665.57581	-369.82031	218.48894	1341.71716	-390.77313	-441.78552	291.72614	-452.96072	-59.1773	997.54236	-64.68151	136.61658	914.06268	-513.42334	79.58292	1582.88916	-468.25443	340.49631	1171.0448	-472.32678	-222.00371	368.16504	-542.09991	272.31866	680.14771	-261.36935	379.88821	1126.71765	-473.24442	-425.64658	98.91094	-450.64713	378.35577	563.33307	-287.77893	81.44926	1412.33276	-434.68188	323.25613	1083.37048	-572.47931	401.7074	1192.38086	-429.38913	230.97409	1194.4718	-647.92725	250.49382	1043.50476	-664.67731	390.33188	386.95697	-269.28326	572.79462	139.68904	-337.34073	-5.78159	1247.46667	-370.41153	431.02985	179.49037	-311.59	1.54072	1139.12012	-440.49359	-36.64853	953.17944	-469.57587	-410.57813	251.62357	-496.4147	385.0957	138.78989	-359.30261	-34.02746	954.33429	-326.06412	1973.08325	1023.4306	-3101.8855	2012.47217	1022.03217	-3140.73633	NaN	NaN	NaN	174.77782	1695.72363	-395.06277	NaN	NaN	NaN	NaN	NaN	NaN	NaN	NaN	NaN	NaN	NaN	NaN	NaN	NaN	NaN	NaN	NaN	NaN	NaN	NaN	NaN	NaN	NaN	NaN	NaN	NaN	NaN	NaN	NaN	NaN	NaN	NaN	NaN	NaN	NaN	NaN	NaN	NaN	NaN	NaN	NaN	NaN	NaN	NaN	NaN	NaN	NaN	NaN	NaN	NaN	NaN	NaN	NaN	NaN
36	0.35	64.67149	583.17535	-551.22888	2.8893	459.26318	-531.38593	-69.31165	1235.06348	-111.65932	285.37735	1184.44324	-378.83386	34.46687	999.16846	-106.55292	251.51949	1361.70984	-553.28815	-51.30795	1109.16223	-76.9882	15.64137	1319.38318	-166.77092	180.80928	1380.12329	-262.71326	187.63695	932.68433	-314.80811	136.12347	1597.05103	-347.29514	56.57287	932.54175	-59.20438	226.37384	1651.67542	-478.29224	238.67439	1666.86694	-367.30902	263.96292	1343.34998	-390.0452	-391.41592	311.80209	-452.00269	-6.52916	990.82086	-66.30779	184.73584	915.75256	-513.25977	124.71323	1584.71497	-465.44696	379.72278	1164.85059	-471.64633	-167.34305	373.55945	-544.33105	316.11359	668.62994	-260.06976	417.34946	1119.02356	-473.65018	-387.36044	117.90434	-456.4566	418.94449	550.11151	-288.99329	127.08285	1414.0885	-432.7438	360.40195	1080.57214	-574.49207	440.832	1182.25977	-427.4144	272.04874	1196.85352	-650.20862	287.4852	1045.87781	-668.54608	433.80035	376.33078	-271.88699	623.60724	129.41594	-343.14984	40.05444	1247.94519	-369.94229	481.58276	170.42783	-315.8392	47.61742	1141.66467	-440.54849	12.61102	957.33679	-470.86758	-364.11438	271.05441	-497.81168	436.45212	131.41592	-364.97852	15.11708	955.35327	-327.59546	1973.20007	1023.52307	-3101.84229	2012.42847	1022.20428	-3140.76172	NaN	NaN	NaN	220.19696	1697.46362	-392.48828	NaN	NaN	NaN	NaN	NaN	NaN	NaN	NaN	NaN	NaN	NaN	NaN	NaN	NaN	NaN	NaN	NaN	NaN	NaN	NaN	NaN	NaN	NaN	NaN	NaN	NaN	NaN	NaN	NaN	NaN	NaN	NaN	NaN	NaN	NaN	NaN	NaN	NaN	NaN	NaN	NaN	NaN	NaN	NaN	NaN	NaN	NaN	NaN	NaN	NaN	NaN	NaN	NaN	NaN
37	0.36	122.90578	580.44135	-552.46344	64.72125	455.45676	-533.56763	-19.91129	1225.02502	-111.28762	331.66098	1184.77869	-379.89938	89.63386	991.8512	-108.04189	295.83008	1362.66174	-553.10876	0.82991	1099.24097	-77.88056	63.8315	1311.44336	-164.35617	227.03339	1378.81506	-261.2215	235.62408	932.00476	-315.70609	181.98036	1597.8092	-344.42108	112.97768	925.1225	-61.7809	271.53421	1652.26709	-475.85669	284.67038	1667.17188	-364.9223	309.29318	1343.94788	-389.75204	-336.50058	331.23563	-449.87268	48.51534	981.91125	-68.18069	233.33481	917.13141	-514.26892	169.59709	1585.76343	-462.50113	419.36813	1154.30664	-472.06479	-111.11319	380.11145	-545.35785	358.35904	656.62927	-257.92426	454.944	1106.79834	-476.10367	-344.40479	137.49345	-464.87735	459.7861	536.9931	-290.64111	172.66557	1415.24268	-430.4483	396.46408	1074.9729	-578.27911	481.31033	1166.5365	-426.68805	311.14532	1198.21448	-653.13696	322.21332	1047.49561	-673.53345	472.9534	365.02356	-274.41	664.31	115.073	-348.17487	85.77924	1247.9502	-368.74469	522.83344	160.47972	-319.2702	93.54478	1143.40076	-439.577	61.64853	959.90613	-471.37881	-313.16455	291.20813	-498.6532	477.9259	123.76937	-369.50662	63.99432	954.64221	-328.6806	1973.13538	1023.4657	-3101.92627	2012.61951	1022.04187	-3140.86743	NaN	NaN	NaN	265.51181	1698.13379	-389.80777	NaN	NaN	NaN	NaN	NaN	NaN	NaN	NaN	NaN	NaN	NaN	NaN	NaN	NaN	NaN	NaN	NaN	NaN	NaN	NaN	NaN	NaN	NaN	NaN	NaN	NaN	NaN	NaN	NaN	NaN	NaN	NaN	NaN	NaN	NaN	NaN	NaN	NaN	NaN	NaN	NaN	NaN	NaN	NaN	NaN	NaN	NaN	NaN	NaN	NaN	NaN	NaN	NaN	NaN
